#N canvas 532 390 450 300 10;
#X obj 33 46 inlet;
#N canvas 566 186 372 324 markovMIDIAnalysis 1;
#X obj 67 40 inlet;
#N canvas 827 356 450 300 pair 0;
#X obj 137 77 inlet;
#X floatatom 134 119 5 0 0 0 - - -;
#X obj 135 146 t f b t;
#X obj 130 179 f;
#X obj 127 204 pack;
#X obj 125 236 outlet;
#X text 130 9 concatena o valor atual co mseu anterior;
#X connect 0 0 1 0;
#X connect 1 0 2 0;
#X connect 2 0 3 1;
#X connect 2 1 3 0;
#X connect 2 2 4 1;
#X connect 3 0 4 0;
#X connect 4 0 5 0;
#X restore 65 77 pd pair;
#X msg 62 111 merge \$1 \$2;
#X msg 280 146 clear;
#X text 276 57 clear table;
#X text 69 17 input number;
#X obj 166 103 inlet;
#X msg 166 137 write \$1;
#X text 167 75 save to file;
#X obj 283 98 bng 15 250 50 0 empty empty empty 17 7 0 10 -262144 -1
-1;
#X obj 62 236 coll pitchMatrix-\$0;
#C restore;
#X obj 283 75 inlet;
#X text 64 272 implements only first order markov chains;
#X connect 0 0 1 0;
#X connect 1 0 2 0;
#X connect 2 0 10 0;
#X connect 3 0 10 0;
#X connect 6 0 7 0;
#X connect 7 0 10 0;
#X connect 9 0 3 0;
#X connect 11 0 9 0;
#X restore 33 148 pd markovMIDIAnalysis;
#N canvas 623 224 443 438 create-filename 0;
#X obj 256 242 mergefilename;
#X text 83 399 recebe o texto e cria o arquivo;
#X obj 64 337 spigot;
#X msg 97 88 1;
#X obj 97 44 inlet;
#X obj 64 368 outlet;
#X obj 256 190 mergefilename;
#X floatatom 256 95 5 0 0 0 - - -;
#X obj 256 46 inlet;
#X msg 256 166 \$1 .coll;
#X msg 256 219 / \$1;
#X text 97 5 numero;
#X text 253 11 canal;
#X obj 167 149 r path;
#X text 165 127 path;
#X obj 167 292 concat-strings;
#X obj 337 105 r datatype;
#X obj 256 118 tosymbol;
#X obj 256 140 concat-strings;
#X text 341 78 datatype;
#X connect 0 0 15 1;
#X connect 2 0 5 0;
#X connect 3 0 2 1;
#X connect 4 0 3 0;
#X connect 6 0 10 0;
#X connect 7 0 17 0;
#X connect 8 0 7 0;
#X connect 9 0 6 0;
#X connect 10 0 0 0;
#X connect 13 0 15 0;
#X connect 15 0 2 0;
#X connect 16 0 18 1;
#X connect 17 0 18 0;
#X connect 18 0 9 0;
#X restore 86 118 pd create-filename;
#X floatatom 33 82 5 0 0 0 - - -;
#X text 31 177 cria um arquivo para o canal e salva os dados dentro
dele.;
#X obj 196 50 inlet;
#X text 37 26 note;
#X text 192 23 channel;
#X obj 233 129 bng 15 250 50 0 empty empty empty 17 7 0 10 -262144
-1 -1;
#X text 231 80 clear;
#X obj 232 101 r clear_tables;
#X connect 0 0 3 0;
#X connect 2 0 1 1;
#X connect 3 0 2 0;
#X connect 3 0 1 0;
#X connect 5 0 2 1;
#X connect 8 0 1 2;
#X connect 10 0 8 0;
