#N canvas 2 106 218 282 10;
#X obj 63 30 inlet;
#X obj 108 30 inlet;
#X obj 63 58 pack s s;
#X msg 63 83 \$1 \$2;
#X obj 63 108 mergefilename;
#X obj 63 134 outlet;
#X text 26 164 concatenates two strings;
#X connect 0 0 2 0;
#X connect 1 0 2 1;
#X connect 2 0 3 0;
#X connect 3 0 4 0;
#X connect 4 0 5 0;
