#N canvas 608 288 450 300 10;
#X obj 136 63 inlet;
#N canvas 828 355 450 300 pair 0;
#X obj 137 77 inlet;
#X floatatom 134 119 5 0 0 0 - - -;
#X obj 135 146 t f b t;
#X obj 130 179 f;
#X obj 127 204 pack;
#X obj 125 236 outlet;
#X obj 185 236 print;
#X text 130 9 concatena o valor atual co mseu anterior;
#X connect 0 0 1 0;
#X connect 1 0 2 0;
#X connect 2 0 3 1;
#X connect 2 1 3 0;
#X connect 2 2 4 1;
#X connect 3 0 4 0;
#X connect 4 0 5 0;
#X connect 4 0 6 0;
#X restore 134 100 pd pair;
#X obj 131 169 coll pitchMatrix-\$0;
#C restore;
#X msg 131 134 merge \$1 \$2;
#X msg 239 119 clear;
#X obj 237 67 inlet;
#X text 235 41 clear table;
#X text 138 40 input number;
#X connect 0 0 1 0;
#X connect 1 0 3 0;
#X connect 3 0 2 0;
#X connect 4 0 2 0;
#X connect 5 0 4 0;
