#N canvas 302 120 632 557 10;
#X obj 170 251 bng 15 250 50 0 empty empty empty 17 7 0 10 -262144
-1 -1;
#X msg 171 271 read;
#X obj 337 333 seq;
#X obj 335 402 midiparse;
#X obj 334 433 unpack;
#X obj 334 464 stripnote;
#X obj 333 491 outlet;
#X msg 358 292 pause;
#X msg 399 292 stop;
#X obj 318 293 bng 15 250 50 0 empty empty empty 17 7 0 10 -262144
-1 -1;
#X obj 58 211 inlet;
#X obj 432 90 inlet;
#X text 54 184 load MIDI;
#X text 432 63 command (play/pause/stop);
#X msg 316 274 play;
#X obj 429 123 route play pause stop;
#X text 336 520 MIDI output;
#X obj 430 489 outlet;
#X obj 103 126 bng 30 250 50 0 empty empty open 0 -5 0 9 -262144 -1
-1;
#X obj 138 124 bng 15 250 50 0 empty empty play 20 7 0 9 -262144 -1
-1;
#X obj 138 142 bng 15 250 50 0 empty empty stop 20 7 0 9 -262144 -1
-1;
#X text 430 518 channel;
#X msg 60 316 read \$1;
#X obj 169 108 tgl 8 0 empty empty empty 17 7 0 10 -262144 -1 -1 0
1;
#X msg 324 90 0;
#X msg 355 92 1;
#X obj 515 495 outlet;
#X text 514 517 finish load?;
#X connect 0 0 1 0;
#X connect 1 0 2 0;
#X connect 2 0 3 0;
#X connect 2 0 24 0;
#X connect 2 1 25 0;
#X connect 3 0 4 0;
#X connect 3 6 17 0;
#X connect 4 0 5 0;
#X connect 4 1 5 1;
#X connect 5 0 6 0;
#X connect 7 0 2 0;
#X connect 8 0 2 0;
#X connect 9 0 2 0;
#X connect 10 0 22 0;
#X connect 11 0 15 0;
#X connect 14 0 9 0;
#X connect 15 0 14 0;
#X connect 15 1 7 0;
#X connect 15 2 8 0;
#X connect 15 3 2 0;
#X connect 18 0 0 0;
#X connect 19 0 14 0;
#X connect 20 0 8 0;
#X connect 22 0 2 0;
#X connect 24 0 23 0;
#X connect 24 0 26 0;
#X connect 25 0 23 0;
#X connect 25 0 26 0;
#X coords 0 -1 1 1 80 60 1 100 100;
