#N canvas 702 124 642 616 10;
#X obj -24 346 play-midi;
#N canvas 205 129 427 538 markovPitchGenerate 0;
#X obj 44 16 inlet;
#X obj 46 51 bng 15 250 50 0 empty empty empty 17 7 0 10 -262144 -1
-1;
#X obj 46 83 f;
#X obj 45 111 t f f;
#X obj 53 178 length;
#X obj 51 205 t b f;
#X obj 47 235 random;
#X obj 42 257 + 1;
#X obj 95 298 pack;
#X msg 96 341 nth \$2 \$1;
#X floatatom 91 418 5 0 0 0 - - -;
#X obj 93 448 outlet;
#X obj 168 18 inlet;
#X msg 169 46 next;
#X floatatom 170 103 5 0 0 0 - - -;
#X obj 171 77 coll coll-matrix-\$0;
#C restore;
#X obj 50 152 coll coll-matrix-\$0;
#C restore;
#X obj 95 380 coll coll-matrix-\$0;
#C restore;
#X connect 0 0 1 0;
#X connect 1 0 2 0;
#X connect 2 0 3 0;
#X connect 3 0 16 0;
#X connect 3 1 8 1;
#X connect 4 0 5 0;
#X connect 5 0 6 0;
#X connect 5 1 6 1;
#X connect 6 0 7 0;
#X connect 7 0 8 0;
#X connect 8 0 9 0;
#X connect 9 0 17 0;
#X connect 10 0 11 0;
#X connect 12 0 13 0;
#X connect 13 0 15 0;
#X connect 14 0 2 1;
#X connect 15 0 14 0;
#X connect 16 0 4 0;
#X connect 17 0 10 0;
#X restore -77 289 pd markovPitchGenerate;
#N canvas 657 128 528 349 load-and-get-datatype 0;
#X obj 85 45 bng 15 250 50 0 empty empty empty 17 7 0 10 -262144 -1
-1;
#X obj 54 70 openpanel;
#X obj 103 114 splitfilename /;
#X obj 54 258 outlet;
#X obj 55 22 inlet;
#X obj 365 256 outlet;
#X text 40 281 file to be opened;
#X obj 245 130 splitfilename -;
#X obj 365 214 stripfilename -5;
#X text 366 285 datatype;
#X obj 281 254 outlet;
#X text 277 285 channel;
#X obj 104 154 splitfilename /;
#X obj 176 252 outlet;
#X text 181 282 filename;
#X text 167 27 carrega uma matriz markov .coll \, exibindo como saida
o diretorio completo do arquivo \, o nome da musica \, o canal carregado
e o tipo de dado armazenado na tabela;
#X obj 262 184 fromsymbol;
#X obj 264 211 route float;
#X connect 0 0 1 0;
#X connect 1 0 2 0;
#X connect 1 0 3 0;
#X connect 2 0 12 0;
#X connect 2 1 7 0;
#X connect 4 0 1 0;
#X connect 7 0 16 0;
#X connect 7 1 8 0;
#X connect 8 0 5 0;
#X connect 12 1 13 0;
#X connect 16 0 17 0;
#X connect 17 0 10 0;
#X restore -64 55 pd load-and-get-datatype;
#X obj -64 25 bng 15 250 50 0 empty empty empty 17 7 0 10 -262144 -1
-1;
#X msg -64 92 read \$1;
#X obj -64 127 coll coll-matrix-\$0;
#C restore;
#X symbolatom 120 166 17 0 0 0 - - -;
#X symbolatom 120 122 8 0 0 1 datatype - -;
#X obj -33 447 outlet;
#X obj 249 167 bng 15 250 50 0 empty empty bang 20 7 0 10 -261234 -258113
-1;
#X obj 234 124 bng 10 250 50 0 empty empty change_tune 15 5 0 9 -262144
-1 -1;
#X text 19 447 NOTEOUT;
#X obj 234 109 bng 10 250 50 0 empty empty open 15 5 0 9 -262144 -1
-1;
#X obj 323 151 inlet;
#X text 318 127 bang note;
#X floatatom 170 144 3 0 127 1 velocity - -;
#X floatatom 248 144 3 0 127 1 artic - -;
#X floatatom 119 146 3 0 0 0 - - -;
#X obj -64 -10 r open-\$0;
#X obj 295 70 s open-\$0;
#X obj 46 178 s ch-\$0;
#X obj 98 326 r ch-\$0;
#X obj 277 196 s bang-\$0;
#X obj -74 263 r bang-\$0;
#X obj 155 206 s vel-\$0;
#X obj -30 315 r vel-\$0;
#X obj 154 70 s ch-tune-\$0;
#X obj 45 251 r ch-tune-\$0;
#X obj 322 100 delay 100;
#X obj 217 201 s art-\$0;
#X obj 32 316 r art-\$0;
#X obj 78 287 bng 15 250 50 0 empty empty empty 17 7 0 10 -262144 -1
-1;
#X connect 0 0 8 0;
#X connect 1 0 0 0;
#X connect 2 0 4 0;
#X connect 2 1 6 0;
#X connect 2 2 17 0;
#X connect 2 3 7 0;
#X connect 3 0 2 0;
#X connect 4 0 5 0;
#X connect 9 0 22 0;
#X connect 10 0 26 0;
#X connect 12 0 19 0;
#X connect 12 0 28 0;
#X connect 13 0 9 0;
#X connect 15 0 24 0;
#X connect 16 0 29 0;
#X connect 17 0 20 0;
#X connect 18 0 3 0;
#X connect 21 0 0 3;
#X connect 23 0 1 0;
#X connect 25 0 0 1;
#X connect 27 0 1 1;
#X connect 27 0 31 0;
#X connect 28 0 10 0;
#X connect 30 0 0 2;
#X coords 0 -1 1 1 210 90 1 100 100;
