#N canvas 100 106 471 652 10;
#N canvas 642 119 529 654 load-and-get-filename 0;
#X obj 85 45 bng 15 250 50 0 empty empty empty 17 7 0 10 -262144 -1
-1;
#X obj 54 70 openpanel;
#X obj 143 184 splitfilename /;
#X obj 55 378 outlet;
#X obj 203 500 outlet;
#X text 19 403 filename to be loaded;
#X obj 55 22 inlet;
#X obj 141 213 stripfilename -4;
#X msg 204 326 \$1 \$2;
#X obj 204 353 mergefilename;
#X obj 273 215 stripfilename -4;
#X obj 203 300 pack s s;
#X obj 143 264 mergefilename;
#X obj 362 374 outlet;
#X text 363 403 pure filename;
#X text 200 524 path;
#X msg 141 241 \$1 markov-tables/;
#X obj 215 436 hcs/sys_gui;
#X msg 216 406 file mkdir \$1;
#X text 213 461 creating new dir;
#X connect 0 0 1 0;
#X connect 1 0 2 0;
#X connect 1 0 3 0;
#X connect 2 0 7 0;
#X connect 2 1 10 0;
#X connect 6 0 1 0;
#X connect 7 0 16 0;
#X connect 8 0 9 0;
#X connect 9 0 4 0;
#X connect 9 0 18 0;
#X connect 10 0 13 0;
#X connect 10 0 11 1;
#X connect 11 0 8 0;
#X connect 12 0 11 0;
#X connect 16 0 12 0;
#X connect 18 0 17 0;
#X restore 112 216 pd load-and-get-filename;
#X obj 115 179 bng 15 250 50 0 empty empty empty 17 7 0 10 -262144
-1 -1;
#X obj 113 320 load-midi;
#X floatatom 114 398 5 0 0 0 - - -;
#X floatatom 154 398 5 0 0 0 - - -;
#X obj 190 418 tgl 15 0 empty empty empty 17 7 0 10 -262144 -1 -1 1
1;
#X obj 190 449 select 1;
#X obj 129 275 delay 10;
#X msg 129 295 play;
#X obj 131 242 bng 15 250 50 0 empty empty empty 17 7 0 10 -262144
-1 -1;
#X obj 139 120 bng 10 250 50 0 empty empty open 15 5 0 9 -262144 -1
-1;
#X symbolatom 106 135 20 0 0 0 - - -;
#X obj 181 120 tgl 10 0 empty empty saving 15 5 0 9 -262144 -1 -1 0
1;
#X obj 262 449 s saving;
#X obj 147 4 r saving;
#X obj 143 29 select 0 1;
#X msg 142 56 1;
#X msg 171 56 0;
#X msg 213 73 symbol done!;
#X obj 225 483 symbol;
#X msg 332 498 symbol notes;
#X obj 114 543 save-data-to-tables-by-channels;
#X obj 332 466 loadbang;
#X connect 0 0 2 0;
#X connect 0 0 9 0;
#X connect 0 1 19 1;
#X connect 0 2 11 0;
#X connect 1 0 0 0;
#X connect 2 0 3 0;
#X connect 2 1 4 0;
#X connect 2 2 5 0;
#X connect 3 0 21 0;
#X connect 4 0 21 1;
#X connect 5 0 6 0;
#X connect 5 0 13 0;
#X connect 6 0 19 0;
#X connect 7 0 8 0;
#X connect 8 0 2 1;
#X connect 9 0 7 0;
#X connect 10 0 1 0;
#X connect 14 0 15 0;
#X connect 15 0 16 0;
#X connect 15 1 17 0;
#X connect 16 0 12 0;
#X connect 17 0 12 0;
#X connect 17 0 18 0;
#X connect 18 0 11 0;
#X connect 19 0 21 2;
#X connect 20 0 21 3;
#X connect 22 0 20 0;
#X coords 0 -1 1 1 135 60 1 100 100;
