#N canvas 378 182 466 511 10;
#X obj 139 225 inlet;
#X obj 139 423 outlet;
#X obj 139 365 makenote;
#X obj 139 393 pack f f f;
#X floatatom 139 337 0 0 0 0 - - -;
#X floatatom 312 330 0 0 0 0 - - -;
#X text 143 320 pitch;
#X text 138 201 NOTES;
#X obj 397 214 inlet;
#X floatatom 397 377 5 0 0 0 - - -;
#X text 396 189 CHANNEL;
#X obj 89 116 cnv 15 100 50 empty empty empty 20 12 0 14 -4034 -1 0
;
#X obj 160 121 vsl 15 30 0 1 0 0 empty aux_art art 0 39 0 10 -261234
-1 -1 2900 1;
#X floatatom 302 216 5 0 0 0 - - -;
#X floatatom 182 338 5 0 0 0 - - -;
#X text 190 318 vel;
#X obj 112 142 bng 15 250 50 0 empty empty empty 17 7 0 10 -261234
-258113 -1;
#X obj 140 121 vsl 15 30 0 1 0 0 empty aux_vel vel 0 39 0 10 -261234
-1 -1 2900 1;
#X obj 153 51 loadbang;
#X msg 157 77 50;
#X obj 208 220 inlet;
#X text 206 198 VEL;
#X obj 204 287 * 1;
#X obj 216 245 t b f;
#X obj 259 243 loadbang;
#X msg 259 270 127;
#X obj 312 275 * 600;
#X obj 347 181 inlet;
#X text 347 157 ART;
#X obj 349 222 / 127;
#X connect 0 0 16 0;
#X connect 0 0 4 0;
#X connect 2 0 3 0;
#X connect 2 1 3 1;
#X connect 3 0 1 0;
#X connect 4 0 2 0;
#X connect 5 0 2 2;
#X connect 8 0 9 0;
#X connect 9 0 3 2;
#X connect 12 0 13 0;
#X connect 13 0 26 0;
#X connect 14 0 2 1;
#X connect 17 0 23 0;
#X connect 18 0 19 0;
#X connect 19 0 12 0;
#X connect 19 0 17 0;
#X connect 20 0 22 0;
#X connect 22 0 14 0;
#X connect 23 0 22 0;
#X connect 23 1 22 1;
#X connect 24 0 25 0;
#X connect 25 0 22 0;
#X connect 26 0 5 0;
#X connect 27 0 29 0;
#X connect 29 0 26 0;
#X coords 0 -1 1 1 80 70 1 100 100;
