#N canvas 222 192 777 433 10;
#X obj -454 60 inlet;
#X obj -384 60 inlet;
#X text -386 37 channel;
#X obj -295 61 inlet;
#X text -300 39 filename;
#X floatatom -447 198 5 0 0 0 - - -;
#X obj -381 84 s channel;
#X msg -353 230 1;
#X floatatom -317 198 5 0 0 0 - - -;
#X floatatom -187 198 5 0 0 0 - - -;
#X msg -223 230 2;
#X msg -93 230 3;
#X floatatom -57 199 5 0 0 0 - - -;
#X obj 99 163 s clear_tables;
#X obj 111 125 bng 10 250 50 0 empty empty clear_tables 15 5 0 9 -262144
-1 -1;
#X obj 99 74 loadbang;
#X obj -295 102 s path;
#X obj -187 254 channel-processor;
#X msg 37 231 4;
#X floatatom 73 199 5 0 0 0 - - -;
#X msg 167 231 5;
#X floatatom -447 298 5 0 0 0 - - -;
#X floatatom -317 298 5 0 0 0 - - -;
#X floatatom -187 298 5 0 0 0 - - -;
#X floatatom -57 299 5 0 0 0 - - -;
#X floatatom 73 299 5 0 0 0 - - -;
#X msg -353 330 6;
#X msg -223 330 7;
#X msg -93 330 8;
#X msg 37 331 9;
#X msg 167 331 10;
#X obj -384 135 gate 10;
#X obj -230 65 inlet;
#X text -233 41 datatype;
#X obj -140 6 cnv 40 380 60 empty empty empty 20 12 0 14 -233017 -66577
0;
#X text -129 8 patch que recebe o fluxo de dados \, canais e o tipo
de informacao que sera armazenada e \, como resultado \, cria um arquivo
para cada canal que armazena tabelas do tipo de dado;
#X text -456 37 data;
#X obj -230 138 s datatype;
#X obj -447 254 channel-processor;
#X obj -317 254 channel-processor;
#X obj -57 255 channel-processor;
#X obj 73 255 channel-processor;
#X obj -447 354 channel-processor;
#X obj -317 354 channel-processor;
#X obj -187 354 channel-processor;
#X obj -57 355 channel-processor;
#X obj 73 355 channel-processor;
#X obj -230 100 makefilename -%s;
#X symbolatom 112 138 12 0 0 0 - - -;
#X obj 31 94 delay 100;
#X connect 0 0 31 1;
#X connect 1 0 6 0;
#X connect 1 0 31 0;
#X connect 3 0 16 0;
#X connect 3 0 49 0;
#X connect 5 0 7 0;
#X connect 5 0 38 0;
#X connect 7 0 38 1;
#X connect 8 0 10 0;
#X connect 8 0 39 0;
#X connect 9 0 11 0;
#X connect 9 0 17 0;
#X connect 10 0 39 1;
#X connect 11 0 17 1;
#X connect 12 0 18 0;
#X connect 12 0 40 0;
#X connect 14 0 13 0;
#X connect 15 0 14 0;
#X connect 18 0 40 1;
#X connect 19 0 20 0;
#X connect 19 0 41 0;
#X connect 20 0 41 1;
#X connect 21 0 26 0;
#X connect 21 0 42 0;
#X connect 22 0 27 0;
#X connect 22 0 43 0;
#X connect 23 0 28 0;
#X connect 23 0 44 0;
#X connect 24 0 29 0;
#X connect 24 0 45 0;
#X connect 25 0 30 0;
#X connect 25 0 46 0;
#X connect 26 0 42 1;
#X connect 27 0 43 1;
#X connect 28 0 44 1;
#X connect 29 0 45 1;
#X connect 30 0 46 1;
#X connect 31 0 5 0;
#X connect 31 1 8 0;
#X connect 31 2 9 0;
#X connect 31 3 12 0;
#X connect 31 4 19 0;
#X connect 31 5 21 0;
#X connect 31 6 22 0;
#X connect 31 7 23 0;
#X connect 31 8 24 0;
#X connect 31 9 25 0;
#X connect 32 0 47 0;
#X connect 32 0 48 0;
#X connect 47 0 37 0;
#X connect 49 0 14 0;
#X coords 0 -1 1 1 100 60 1 100 100;
