#N canvas 230 105 628 473 10;
#X obj 169 24 load-midi;
#X floatatom 181 92 5 0 0 0 - - -;
#X floatatom 231 91 5 0 0 0 - - -;
#X obj 379 218 noteout;
#X obj 379 139 play-midi;
#X obj 383 11 tgl 15 0 empty empty empty 17 7 0 10 -262144 -1 -1 0
1;
#X obj 382 62 bng 15 250 50 0 empty empty empty 17 7 0 10 -262144 -1
-1;
#N canvas 539 163 427 538 markovPitchGenerate 0;
#X obj 44 16 inlet;
#X obj 46 51 bng 15 250 50 0 empty empty empty 17 7 0 10 -262144 -1
-1;
#X obj 46 83 f;
#X obj 45 111 t f f;
#X obj 53 178 length;
#X obj 51 205 t b f;
#X obj 47 235 random;
#X obj 42 257 + 1;
#X obj 95 298 pack;
#X msg 96 341 nth \$2 \$1;
#X obj 95 380 coll pitchMatrix;
#C restore;
#X floatatom 91 418 5 0 0 0 - - -;
#X obj 93 448 outlet;
#X obj 50 152 coll pitchMatrix;
#C restore;
#X obj 168 18 inlet;
#X msg 169 46 next;
#X obj 171 77 coll pitchMatrix;
#C restore;
#X floatatom 170 103 5 0 0 0 - - -;
#X connect 0 0 1 0;
#X connect 1 0 2 0;
#X connect 2 0 3 0;
#X connect 3 0 13 0;
#X connect 3 1 8 1;
#X connect 4 0 5 0;
#X connect 5 0 6 0;
#X connect 5 1 6 1;
#X connect 6 0 7 0;
#X connect 7 0 8 0;
#X connect 8 0 9 0;
#X connect 9 0 10 0;
#X connect 10 0 11 0;
#X connect 11 0 12 0;
#X connect 13 0 4 0;
#X connect 14 0 15 0;
#X connect 15 0 16 0;
#X connect 16 0 17 0;
#X connect 17 0 2 1;
#X restore 374 101 pd markovPitchGenerate;
#X floatatom 328 148 5 0 0 0 - - -;
#X obj 496 79 bng 15 250 50 0 empty empty empty 17 7 0 10 -262144 -1
-1;
#X obj 382 35 metro 500;
#X obj 149 267 markov-analysis-midi-notes;
#X connect 0 0 1 0;
#X connect 0 1 2 0;
#X connect 4 0 3 0;
#X connect 5 0 10 0;
#X connect 6 0 7 0;
#X connect 7 0 4 0;
#X connect 7 0 8 0;
#X connect 9 0 7 1;
#X connect 10 0 6 0;
